<svg width="38" height="38" viewBox="0 0 38 38" fill="none" xmlns="http://www.w3.org/2000/svg">
<path d="M35.625 3.30928C34.2 4.75011 31.8725 5.90594 28.9908 6.72928C26.1744 4.41919 22.6426 3.15983 19 3.16678C15.2158 3.16678 11.7325 4.49678 9.00917 6.72928C6.1275 5.90594 3.8 4.75011 2.375 3.30928C2.4225 5.89011 3.72083 8.24928 5.89 10.1334C4.10853 12.7466 3.15918 15.8375 3.16667 19.0001C3.16667 23.1994 4.83482 27.2266 7.80414 30.196C9.2744 31.6662 11.0199 32.8325 12.9408 33.6282C14.8618 34.4239 16.9207 34.8334 19 34.8334C23.1993 34.8334 27.2265 33.1653 30.1959 30.196C33.1652 27.2266 34.8333 23.1994 34.8333 19.0001C34.8333 15.7068 33.8358 12.6668 32.11 10.1334C34.2792 8.24928 35.5775 5.89011 35.625 3.30928ZM11.875 13.4584L16.625 15.8334C16.625 17.1001 15.5167 18.2084 14.25 18.2084C12.9833 18.2084 11.875 17.1001 11.875 15.8334V13.4584ZM19 27.2809C16.2292 27.2809 13.7908 26.1251 12.3658 24.4151L14.6142 22.1668C15.3267 23.3068 17.0208 24.1143 19 24.1143C20.9792 24.1143 22.6733 23.3068 23.3858 22.1668L25.6342 24.4151C24.2092 26.1251 21.7708 27.2809 19 27.2809ZM26.125 15.8334C26.125 17.1001 25.0167 18.2084 23.75 18.2084C22.4833 18.2084 21.375 17.1001 21.375 15.8334L26.125 13.4584V15.8334Z" fill="#60F761"/>
</svg>
